# xmcd
#
# Track frame offsets:
#	150
#	35213
#	49589
#
# Disc length: 1109 seconds
#
# Revision: 1
# Processed by: cddbd v1.5.2PL0 Copyright (c) Steve Scherf et al.
# Submitted via: audiograbber 1.83.01
#
DISCID=22045303
DTITLE=Grateful Dead - 78-04-14 Cassell Coliseum, Virginia Polytechnic, Blacksb
DTITLE=urg VA
DYEAR=1900
DGENRE=
TTITLE0=Samson and Delilah
TTITLE1="Smokestack Lightning"
TTITLE2=Ship Of Fools
EXTD=
EXTT0=
EXTT1=
EXTT2=
PLAYORDER=
